<svg xmlns="http://www.w3.org/2000/svg" version="1.1" xmlns:xlink="http://www.w3.org/1999/xlink" xmlns:svgjs="http://svgjs.dev/svgjs" width="200" height="150" viewBox="0 0 2000 1500"><rect width="2000" height="1500" fill="#1ebbd7"></rect><g transform="matrix(0.4444444444444444,0,0,0.4444444444444444,555.5555555555557,250)"><svg viewBox="0 0 320 360" data-background-color="#1ebbd7" preserveAspectRatio="xMidYMid meet" height="2250" width="2000" xmlns="http://www.w3.org/2000/svg" xmlns:xlink="http://www.w3.org/1999/xlink"><g id="tight-bounds" transform="matrix(1,0,0,1,0,0)"><svg viewBox="0 0 320 360" height="360" width="320"><g><svg></svg></g><g><svg viewBox="0 0 320 360" height="360" width="320"><g><path d="M20.961 227.22l3.726 4.658-1.863-6.056c-0.466-2.795-3.726 0.466-1.863 1.398M25.153 224.425c1.397 2.329 2.795 4.658 2.795 6.987 0 3.261 2.795 4.658 5.123 5.589-3.261-3.726-5.124-13.974-7.918-12.576M204.017 26.929c7.918 0 15.371-0.932 23.756 0.931 20.495 5.124 37.729 15.371 49.374 29.811l32.606 52.169c1.397 13.042 4.192 27.482 3.726 43.319 3.261 0 2.795-4.658 6.521-5.59-3.726 9.316-5.59 20.961-6.521 34.469-2.329-7.453 0-18.632 0.466-24.687-3.261 5.124-5.124 1.397-5.124-0.932 0.466-3.726-1.397-3.261-2.795-4.658-5.124-4.658-8.384-9.782-12.11-17.7 2.329-6.055 2.795-14.905-4.658-19.563-2.329-1.397-5.124-3.726-6.521-7.453-1.863-5.124-5.124-11.179-4.193-19.097 0.466-2.329-6.987 5.124-11.179 1.863-18.166-12.576-36.332-27.016-58.224-39.127-11.645 0-20.029-4.192-24.221-9.316-3.726-4.658-0.932-10.713 4.658-11.179 3.261 0 6.987-0.932 9.782 0.932 0.466-1.863 2.329-4.192 4.657-4.192M157.904 16.215l0.932 0.466c4.658 0.932 6.987 7.453 12.11 5.124 0 3.261 0.466 6.521-0.466 8.85-1.397 3.726-5.59 3.726-8.85 3.726-31.208-1.863-49.374 11.179-68.471 22.358-5.124 3.261-10.713 5.59-14.906 9.782-20.029 18.632-41.921 35.866-47.045 70.335l-4.192 38.195c-0.466 4.192-5.124 8.384-4.192 13.508l3.26 22.824c-3.261-3.261-5.124 0.932-4.192 2.795 0.466 1.397 2.329 6.055 5.124 1.863 3.726 6.987 7.453 20.495 12.576 26.55 15.837 18.632 36.332 35.4 53.101 52.169 4.192-0.932 7.453-0.932 8.384-3.727 1.397 2.795-1.397 5.59-3.726 6.056 7.453 4.658 15.837 8.85 27.016 9.781 14.44 0.932 27.948 3.261 40.524 6.522 6.521-1.863 13.042-2.795 20.029-3.261 2.329 0 3.726-3.726 6.521-4.658l0.466-4.658c2.795 4.192 2.329-1.397 0.466-4.192 3.261 2.795 4.192 5.124 5.589 6.987 0-1.397 3.726-6.521 3.727-0.466l0.931-6.055c1.397-0.932 1.863 5.124 3.261 0.931 1.397-4.192 4.192-0.932 6.987-2.329-0.932 1.863-0.466 5.59 2.794 3.261l3.727-3.261c2.329 5.59 6.055 3.261 7.918 2.329 20.495-13.042 40.99-28.413 60.553-43.784l-0.466 6.055 2.329-7.453c2.329 2.329 4.192 0.466 5.124-0.931 2.795-4.658 6.521-9.316 12.577-13.508-7.453 20.029-16.303 35.866-27.482 48.908l-4.658 5.59c0 3.261-0.932 7.453-4.658 7.918-1.863 0.466-5.59-0.932-8.384 1.863-1.397 1.863 3.261 5.59-0.466 2.795-3.261-2.329-6.521 0-10.248 0.932-2.795 0.932 1.863 3.726 2.795 5.589 0.932 1.863 1.863 3.726 1.398 6.056l-5.124-5.59c-6.055 3.261-9.782 9.316-14.906 13.974-2.329 1.863-1.397 5.124-1.397 7.918-3.261 0-6.987-0.932-8.85 0.932-1.397 1.863-0.932 4.658-0.932 7.453-4.658-0.466-5.124-7.453-9.315-6.056-4.192 0.932-8.85 1.397-12.577 3.727 2.795 5.59-4.658 2.329-3.726 3.26-6.987-4.192-13.042-7.453-20.495-4.658-15.837-5.124-35.4-2.795-49.84-0.931 0-2.329 0.466-4.658-0.466-5.124-0.932 2.329-3.726 1.397-3.26 1.397-8.85-6.055-17.7-9.782-27.016-14.905-8.384 0.932-16.303-3.261-18.632-5.59-6.521-6.055-13.974-2.795-20.029-4.192-13.042-3.261-17.7-16.769-19.098-26.084-0.932-4.658-4.658-6.521-6.055-6.056-6.055-19.563-15.371-37.263-22.824-55.429-1.863-4.658-1.397-9.316-1.397-14.44 2.329 0.932 4.658 0.466 4.192-2.794-2.329-15.371-7.918-27.016-13.974-38.195 3.261-15.837 3.726-34.469 11.179-48.443 6.521-12.576 18.632-19.098 27.016-29.811 2.795-3.726 2.795-8.85 5.59-12.11 9.316-9.316 18.632-19.098 28.879-27.482 4.658-3.726 10.247 0 17.234-1.397 2.329-8.384 11.645-15.837 20.495-13.508 3.726 0.932 11.179-8.85 13.508-9.782 3.726-1.397 1.863 3.726 1.863 6.987 8.85-6.987 20.961-10.713 32.14-14.906" fill="#0812ac" fill-rule="nonzero" stroke="none" stroke-width="1" stroke-linecap="butt" stroke-linejoin="miter" stroke-miterlimit="10" stroke-dasharray="" stroke-dashoffset="0" font-family="none" font-weight="none" font-size="none" text-anchor="none" style="mix-blend-mode: normal" data-fill-palette-color="tertiary"></path></g><g transform="matrix(1,0,0,1,64,91.10136986301369)"><svg viewBox="0 0 192 177.79726027397263" height="177.79726027397263" width="192"><g><svg viewBox="0 0 192 177.79726027397263" height="177.79726027397263" width="192"><g><svg viewBox="0 0 192 177.79726027397263" height="177.79726027397263" width="192"><g><svg viewBox="0 0 192 177.79726027397263" height="177.79726027397263" width="192"><g id="textblocktransform"><svg viewBox="0 0 192 177.79726027397263" height="177.79726027397263" width="192" id="textblock"><g><svg viewBox="0 0 192 177.79726027397263" height="177.79726027397263" width="192"><g transform="matrix(1,0,0,1,0,0)"><svg width="192" viewBox="-0.3 -33.6 36.5 33.800000000000004" height="177.79726027397263" data-palette-color="#ffffff"><path d="M18.7-33.6Q21.5-33.6 23.88-32.93 26.25-32.25 28.7-30.8L28.7-30.8 29.85-31.75Q31.05-32.7 31.83-33.05 32.6-33.4 33.6-33.4L33.6-33.4Q34.8-33.4 35.5-32.88 36.2-32.35 36.2-31.35L36.2-31.35Q36.2-30.95 36.05-30.5L36.05-30.5 33.95-23.6Q33.6-22.4 33.08-21.9 32.55-21.4 31.5-21.4L31.5-21.4Q30.4-21.4 29.58-22.08 28.75-22.75 27-24.85L27-24.85Q25.25-26.85 23.83-27.68 22.4-28.5 20.9-28.5L20.9-28.5Q19.8-28.5 19.05-27.78 18.3-27.05 18.3-26L18.3-26Q18.3-24.8 19.5-23.78 20.7-22.75 23.25-21.2L23.25-21.2Q25.85-19.65 27.55-18.4 29.25-17.15 30.45-15.3 31.65-13.45 31.65-11.05L31.65-11.05Q31.65-9.5 31.15-7.95L31.15-7.95Q29.95-3.95 26.5-1.88 23.05 0.2 18.45 0.2L18.45 0.2Q15 0.2 12.65-0.6 10.3-1.4 7.85-3.3L7.85-3.3 6.05-1.8Q4.8-0.75 4-0.38 3.2 0 2.2 0L2.2 0Q1.05 0 0.38-0.55-0.3-1.1-0.3-2.05L-0.3-2.05Q-0.3-2.55-0.1-3.1L-0.1-3.1 2.35-10.55Q2.75-11.85 3.45-12.4 4.15-12.95 5.25-12.95L5.25-12.95Q6.4-12.95 7.33-12.15 8.25-11.35 9.75-9.25L9.75-9.25Q11.35-6.95 12.73-6.05 14.1-5.15 16-5.15L16-5.15Q17.35-5.15 18.07-5.58 18.8-6 19.1-6.95L19.1-6.95Q19.2-7.2 19.2-7.7L19.2-7.7Q19.2-8.9 18.05-9.9 16.9-10.9 14.5-12.3L14.5-12.3Q11.95-13.85 10.35-15.08 8.75-16.3 7.58-18.15 6.4-20 6.4-22.5L6.4-22.5Q6.4-24.25 6.95-25.95L6.95-25.95Q8-29.4 11.25-31.5 14.5-33.6 18.7-33.6L18.7-33.6Z" opacity="1" transform="matrix(1,0,0,1,0,0)" fill="#ffffff" class="wordmark-text-0" data-fill-palette-color="primary" id="text-0"></path></svg></g></svg></g></svg></g></svg></g><g></g></svg></g></svg></g></svg></g></svg></g><defs></defs></svg><rect width="320" height="360" fill="none" stroke="none" visibility="hidden"></rect></g></svg></g></svg>